<svg width="15" height="13" viewBox="0 0 15 13" fill="none" xmlns="http://www.w3.org/2000/svg">
<path d="M0.173077 7.07687C0.0576923 6.96149 0 6.78841 0 6.67303C0 6.55764 0.0576923 6.38456 0.173077 6.26918L0.980769 5.46149C1.21154 5.23072 1.55769 5.23072 1.78846 5.46149L1.84615 5.51918L5.01923 8.92303C5.13461 9.03841 5.30769 9.03841 5.42307 8.92303L13.1538 0.90379H13.2115C13.4423 0.673021 13.7885 0.673021 14.0192 0.90379L14.8269 1.71148C15.0577 1.94225 15.0577 2.28841 14.8269 2.51918L5.59615 12.0961C5.48077 12.2115 5.36538 12.2692 5.1923 12.2692C5.01923 12.2692 4.90384 12.2115 4.78846 12.0961L0.288461 7.24995L0.173077 7.07687Z" fill="#1FDB6A"/>
</svg>
