<svg width="30" height="30" viewBox="0 0 30 30" fill="none" xmlns="http://www.w3.org/2000/svg">
<g clip-path="url(#clip0_1_170)">
<path d="M29.9522 18.5118C29.921 18.4343 29.8747 18.3656 29.816 18.3081L22.3173 10.8094C22.0735 10.5657 21.6773 10.5657 21.4335 10.8094C21.1898 11.0532 21.1898 11.4494 21.4335 11.6932L27.8659 18.1256H15.6249C7.69868 18.1256 1.25003 11.6769 1.25003 3.75075C1.25003 3.40575 0.97001 3.12573 0.625013 3.12573C0.280017 3.12573 0 3.40569 0 3.75069C0 12.3669 7.00868 19.3755 15.6249 19.3755H27.866L21.4336 25.808C21.1898 26.0517 21.1898 26.448 21.4336 26.6917C21.5561 26.8142 21.716 26.8742 21.8761 26.8742C22.0361 26.8742 22.196 26.813 22.3186 26.6917L29.8172 19.193C29.8747 19.1355 29.9197 19.0655 29.9522 18.9893C30.0159 18.8368 30.0159 18.6643 29.9522 18.5118Z" fill="white"/>
</g>
<defs>
<clipPath id="clip0_1_170">
<rect width="30" height="30" fill="white"/>
</clipPath>
</defs>
</svg>
